<svg xmlns="http://www.w3.org/2000/svg" xmlns:xlink="http://www.w3.org/1999/xlink" width="1050" height="429.07"><rect width="1050" height="429.07" rx="5" ry="5" class="a"/><svg y="0%" x="0%"><circle cx="20" cy="20" r="6" fill="#ff5f58"/><circle cx="40" cy="20" r="6" fill="#ffbd2e"/><circle cx="60" cy="20" r="6" fill="#18c132"/></svg><svg height="369.07" viewBox="0 0 101 36.907" width="1010" x="15" xmlns="http://www.w3.org/2000/svg" xmlns:xlink="http://www.w3.org/1999/xlink" y="50"><style>@keyframes m{0%{transform:translateX(0)}.3%{transform:translateX(-202px)}4.5%{transform:translateX(-303px)}6.2%{transform:translateX(-404px)}8%{transform:translateX(-505px)}9.5%{transform:translateX(-606px)}10.7%{transform:translateX(-707px)}12.7%{transform:translateX(-808px)}14.1%{transform:translateX(-909px)}14.8%{transform:translateX(-1010px)}16.6%{transform:translateX(-1111px)}18.5%{transform:translateX(-1212px)}19.5%{transform:translateX(-1313px)}21.1%{transform:translateX(-1414px)}21.8%{transform:translateX(-1515px)}23.9%{transform:translateX(-1616px)}25.3%{transform:translateX(-1717px)}28.4%{transform:translateX(-1818px)}30.7%{transform:translateX(-1919px)}33.7%{transform:translateX(-2020px)}41.8%{transform:translateX(-2121px)}43.9%{transform:translateX(-2222px)}45.1%{transform:translateX(-2323px)}47.8%{transform:translateX(-2424px)}54.3%{transform:translateX(-2525px)}57.3%{transform:translateX(-2626px)}59.8%{transform:translateX(-2727px)}61.5%{transform:translateX(-2828px)}62.7%{transform:translateX(-2929px)}65.4%{transform:translateX(-3030px)}69.4%{transform:translateX(-3131px)}75.6%{transform:translateX(-3232px)}78.5%{transform:translateX(-3333px)}81%{transform:translateX(-3434px)}81.7%{transform:translateX(-3737px)}82%{transform:translateX(-3838px)}82.4%{transform:translateX(-3939px)}82.7%{transform:translateX(-4040px)}83%{transform:translateX(-4141px)}83.4%{transform:translateX(-4242px)}83.5%{transform:translateX(-4343px)}83.6%{transform:translateX(-4545px)}83.7%{transform:translateX(-4646px)}89.2%{transform:translateX(-4747px)}91.6%{transform:translateX(-4848px)}92.7%{transform:translateX(-5050px)}to{transform:translateX(-5151px)}}.a{fill:#282d35}.f,.g,.h,.i,.j{fill:#b9c0cb;white-space:pre}.g,.h,.i,.j{fill:#e88388}.h,.i,.j{fill:#6f7783}.i,.j{fill:#a8cc8c}.j{fill:#66c2cd}</style><g font-family="Monaco,Consolas,Menlo,'Bitstream Vera Sans Mono','Powerline Symbols',monospace" font-size="1.67"><defs><symbol id="1"><text y="1.67" class="f">kinopico@macbook-pro</text><text x="21.042" y="1.67" class="f">~</text><text x="23.046" y="1.67" class="f">%</text></symbol><symbol id="2"><text y="1.67" class="f">kinopico@macbook-pro</text><text x="21.042" y="1.67" class="f">~</text><text x="23.046" y="1.67" class="f">%</text><text x="25.05" y="1.67" class="f">pip3</text></symbol><symbol id="3"><text y="1.67" class="f">kinopico@macbook-pro</text><text x="21.042" y="1.67" class="f">~</text><text x="23.046" y="1.67" class="f">%</text><text x="25.05" y="1.67" class="f">pip3</text><text x="30.06" y="1.67" class="f">install</text></symbol><symbol id="4"><text y="1.67" class="f">kinopico@macbook-pro</text><text x="21.042" y="1.67" class="f">~</text><text x="23.046" y="1.67" class="f">%</text><text x="25.05" y="1.67" class="f">pip3</text><text x="30.06" y="1.67" class="f">install</text><text x="38.076" y="1.67" class="f">crazy-thursday</text></symbol><symbol id="5"><text y="1.67" class="f">Defaulting</text><text x="11.022" y="1.67" class="f">to</text><text x="14.028" y="1.67" class="f">user</text><text x="19.038" y="1.67" class="f">installation</text><text x="32.064" y="1.67" class="f">because</text><text x="40.08" y="1.67" class="f">normal</text><text x="47.094" y="1.67" class="f">site-packages</text><text x="61.122" y="1.67" class="f">is</text><text x="64.128" y="1.67" class="f">not</text><text x="68.136" y="1.67" class="f">writeable</text></symbol><symbol id="6"><text y="1.67" class="f">Collecting</text><text x="11.022" y="1.67" class="f">crazy-thursday</text></symbol><symbol id="7"><text x="2.004" y="1.67" class="f">Downloading</text><text x="14.028" y="1.67" class="f">crazy_thursday-2022.9.25.18-py3-none-any.whl</text><text x="59.118" y="1.67" class="f">(12</text><text x="63.126" y="1.67" class="f">kB)</text></symbol><symbol id="8"><text y="1.67" class="f">Collecting</text><text x="11.022" y="1.67" class="f">rich==12.5.1</text></symbol><symbol id="9"><text x="2.004" y="1.67" class="f">Downloading</text><text x="14.028" y="1.67" class="f">rich-12.5.1-py3-none-any.whl</text><text x="43.086" y="1.67" class="f">(235</text><text x="48.096" y="1.67" class="f">kB)</text></symbol><symbol id="10"><text x="5.01" y="1.67" class="g">━━━━━</text><text x="10.02" y="1.67" class="h">╺━━━━━━━━━━━━━━━━━━━━━━━━━━━━━━━━━━</text><text x="46.092" y="1.67" class="i">30.7/235.6</text><text x="57.114" y="1.67" class="i">kB</text><text x="60.12" y="1.67" class="g">1.3</text><text x="64.128" y="1.67" class="g">MB/s</text><text x="69.138" y="1.67" class="f">eta</text><text x="73.146" y="1.67" class="j">0:00:01</text></symbol><symbol id="11"><text x="5.01" y="1.67" class="h">━━━━━━━━━━━━━━━━━━━━━━━━━━━━━━━━━━━━━━━━</text><text x="46.092" y="1.67" class="i">235.6/235.6</text><text x="58.116" y="1.67" class="i">kB</text><text x="61.122" y="1.67" class="g">1.1</text><text x="65.13" y="1.67" class="g">MB/s</text><text x="70.14" y="1.67" class="f">eta</text><text x="74.148" y="1.67" class="j">0:00:00</text></symbol><symbol id="12"><text y="1.67" class="f">Requirement</text><text x="12.024" y="1.67" class="f">already</text><text x="20.04" y="1.67" class="f">satisfied:</text><text x="31.062" y="1.67" class="f">commonmark&lt;0.10.0,&gt;=0.9.0</text><text x="57.114" y="1.67" class="f">in</text><text x="60.12" y="1.67" class="f">./Library/Python/3.8/lib/python/site-pack</text></symbol><symbol id="13"><text y="1.67" class="f">ages</text><text x="5.01" y="1.67" class="f">(from</text><text x="11.022" y="1.67" class="f">rich==12.5.1-&gt;crazy-thursday)</text><text x="41.082" y="1.67" class="f">(0.9.1)</text></symbol><symbol id="14"><text y="1.67" class="f">Requirement</text><text x="12.024" y="1.67" class="f">already</text><text x="20.04" y="1.67" class="f">satisfied:</text><text x="31.062" y="1.67" class="f">pygments&lt;3.0.0,&gt;=2.6.0</text><text x="54.108" y="1.67" class="f">in</text><text x="57.114" y="1.67" class="f">./Library/Python/3.8/lib/python/site-package</text></symbol><symbol id="15"><text y="1.67" class="f">s</text><text x="2.004" y="1.67" class="f">(from</text><text x="8.016" y="1.67" class="f">rich==12.5.1-&gt;crazy-thursday)</text><text x="38.076" y="1.67" class="f">(2.13.0)</text></symbol><symbol id="16"><text y="1.67" class="f">Requirement</text><text x="12.024" y="1.67" class="f">already</text><text x="20.04" y="1.67" class="f">satisfied:</text><text x="31.062" y="1.67" class="f">typing-extensions&lt;5.0,&gt;=4.0.0</text><text x="61.122" y="1.67" class="f">in</text><text x="64.128" y="1.67" class="f">./Library/Python/3.8/lib/python/site-</text></symbol><symbol id="17"><text y="1.67" class="f">packages</text><text x="9.018" y="1.67" class="f">(from</text><text x="15.03" y="1.67" class="f">rich==12.5.1-&gt;crazy-thursday)</text><text x="45.09" y="1.67" class="f">(4.3.0)</text></symbol><symbol id="18"><text y="1.67" class="f">Installing</text><text x="11.022" y="1.67" class="f">collected</text><text x="21.042" y="1.67" class="f">packages:</text><text x="31.062" y="1.67" class="f">rich,</text><text x="37.074" y="1.67" class="f">crazy-thursday</text></symbol><symbol id="19"><text y="1.67" class="f">Successfully</text><text x="13.026" y="1.67" class="f">installed</text><text x="23.046" y="1.67" class="f">crazy-thursday-2022.9.25.18</text><text x="51.102" y="1.67" class="f">rich-12.5.1</text></symbol><symbol id="a"><path fill="transparent" d="M0 0h101v17H0z"/></symbol><symbol id="b"><path fill="#6f7683" d="M0 0h1.102v2.171H0z"/></symbol></defs><path class="a" d="M0 0h101v36.907H0z"/><g style="animation-duration:11.874354s;animation-iteration-count:infinite;animation-name:m;animation-timing-function:steps(1,end)"><svg width="5252"><svg><use xlink:href="#a"/><use xlink:href="#b" x="-.004"/></svg><svg x="101"><use xlink:href="#a"/><use xlink:href="#b" x="-.004"/></svg><svg x="202"><use xlink:href="#a"/><use xlink:href="#b" x="24.996"/><use xlink:href="#1"/></svg><svg x="303"><use xlink:href="#a"/><use xlink:href="#b" x="25.996"/><text y="1.67" class="f">kinopico@macbook-pro</text><text x="21.042" y="1.67" class="f">~</text><text x="23.046" y="1.67" class="f">%</text><text x="25.05" y="1.67" class="f">p</text></svg><svg x="404"><use xlink:href="#a"/><use xlink:href="#b" x="26.996"/><text y="1.67" class="f">kinopico@macbook-pro</text><text x="21.042" y="1.67" class="f">~</text><text x="23.046" y="1.67" class="f">%</text><text x="25.05" y="1.67" class="f">pi</text></svg><svg x="505"><use xlink:href="#a"/><use xlink:href="#b" x="27.996"/><text y="1.67" class="f">kinopico@macbook-pro</text><text x="21.042" y="1.67" class="f">~</text><text x="23.046" y="1.67" class="f">%</text><text x="25.05" y="1.67" class="f">pip</text></svg><svg x="606"><use xlink:href="#a"/><use xlink:href="#b" x="28.996"/><use xlink:href="#2"/></svg><svg x="707"><use xlink:href="#a"/><use xlink:href="#b" x="29.996"/><use xlink:href="#2"/></svg><svg x="808"><use xlink:href="#a"/><use xlink:href="#b" x="30.996"/><text y="1.67" class="f">kinopico@macbook-pro</text><text x="21.042" y="1.67" class="f">~</text><text x="23.046" y="1.67" class="f">%</text><text x="25.05" y="1.67" class="f">pip3</text><text x="30.06" y="1.67" class="f">i</text></svg><svg x="909"><use xlink:href="#a"/><use xlink:href="#b" x="31.996"/><text y="1.67" class="f">kinopico@macbook-pro</text><text x="21.042" y="1.67" class="f">~</text><text x="23.046" y="1.67" class="f">%</text><text x="25.05" y="1.67" class="f">pip3</text><text x="30.06" y="1.67" class="f">in</text></svg><svg x="1010"><use xlink:href="#a"/><use xlink:href="#b" x="32.996"/><text y="1.67" class="f">kinopico@macbook-pro</text><text x="21.042" y="1.67" class="f">~</text><text x="23.046" y="1.67" class="f">%</text><text x="25.05" y="1.67" class="f">pip3</text><text x="30.06" y="1.67" class="f">ins</text></svg><svg x="1111"><use xlink:href="#a"/><use xlink:href="#b" x="33.996"/><text y="1.67" class="f">kinopico@macbook-pro</text><text x="21.042" y="1.67" class="f">~</text><text x="23.046" y="1.67" class="f">%</text><text x="25.05" y="1.67" class="f">pip3</text><text x="30.06" y="1.67" class="f">inst</text></svg><svg x="1212"><use xlink:href="#a"/><use xlink:href="#b" x="34.996"/><text y="1.67" class="f">kinopico@macbook-pro</text><text x="21.042" y="1.67" class="f">~</text><text x="23.046" y="1.67" class="f">%</text><text x="25.05" y="1.67" class="f">pip3</text><text x="30.06" y="1.67" class="f">insta</text></svg><svg x="1313"><use xlink:href="#a"/><use xlink:href="#b" x="35.996"/><text y="1.67" class="f">kinopico@macbook-pro</text><text x="21.042" y="1.67" class="f">~</text><text x="23.046" y="1.67" class="f">%</text><text x="25.05" y="1.67" class="f">pip3</text><text x="30.06" y="1.67" class="f">instal</text></svg><svg x="1414"><use xlink:href="#a"/><use xlink:href="#b" x="36.996"/><use xlink:href="#3"/></svg><svg x="1515"><use xlink:href="#a"/><use xlink:href="#b" x="37.996"/><use xlink:href="#3"/></svg><svg x="1616"><use xlink:href="#a"/><use xlink:href="#b" x="38.996"/><text y="1.67" class="f">kinopico@macbook-pro</text><text x="21.042" y="1.67" class="f">~</text><text x="23.046" y="1.67" class="f">%</text><text x="25.05" y="1.67" class="f">pip3</text><text x="30.06" y="1.67" class="f">install</text><text x="38.076" y="1.67" class="f">c</text></svg><svg x="1717"><use xlink:href="#a"/><use xlink:href="#b" x="39.996"/><text y="1.67" class="f">kinopico@macbook-pro</text><text x="21.042" y="1.67" class="f">~</text><text x="23.046" y="1.67" class="f">%</text><text x="25.05" y="1.67" class="f">pip3</text><text x="30.06" y="1.67" class="f">install</text><text x="38.076" y="1.67" class="f">cr</text></svg><svg x="1818"><use xlink:href="#a"/><use xlink:href="#b" x="40.996"/><text y="1.67" class="f">kinopico@macbook-pro</text><text x="21.042" y="1.67" class="f">~</text><text x="23.046" y="1.67" class="f">%</text><text x="25.05" y="1.67" class="f">pip3</text><text x="30.06" y="1.67" class="f">install</text><text x="38.076" y="1.67" class="f">cra</text></svg><svg x="1919"><use xlink:href="#a"/><use xlink:href="#b" x="41.996"/><text y="1.67" class="f">kinopico@macbook-pro</text><text x="21.042" y="1.67" class="f">~</text><text x="23.046" y="1.67" class="f">%</text><text x="25.05" y="1.67" class="f">pip3</text><text x="30.06" y="1.67" class="f">install</text><text x="38.076" y="1.67" class="f">craz</text></svg><svg x="2020"><use xlink:href="#a"/><use xlink:href="#b" x="42.996"/><text y="1.67" class="f">kinopico@macbook-pro</text><text x="21.042" y="1.67" class="f">~</text><text x="23.046" y="1.67" class="f">%</text><text x="25.05" y="1.67" class="f">pip3</text><text x="30.06" y="1.67" class="f">install</text><text x="38.076" y="1.67" class="f">crazy</text></svg><svg x="2121"><use xlink:href="#a"/><use xlink:href="#b" x="43.996"/><text y="1.67" class="f">kinopico@macbook-pro</text><text x="21.042" y="1.67" class="f">~</text><text x="23.046" y="1.67" class="f">%</text><text x="25.05" y="1.67" class="f">pip3</text><text x="30.06" y="1.67" class="f">install</text><text x="38.076" y="1.67" class="f">crazy-</text></svg><svg x="2222"><use xlink:href="#a"/><use xlink:href="#b" x="44.996"/><text y="1.67" class="f">kinopico@macbook-pro</text><text x="21.042" y="1.67" class="f">~</text><text x="23.046" y="1.67" class="f">%</text><text x="25.05" y="1.67" class="f">pip3</text><text x="30.06" y="1.67" class="f">install</text><text x="38.076" y="1.67" class="f">crazy-t</text></svg><svg x="2323"><use xlink:href="#a"/><use xlink:href="#b" x="45.996"/><text y="1.67" class="f">kinopico@macbook-pro</text><text x="21.042" y="1.67" class="f">~</text><text x="23.046" y="1.67" class="f">%</text><text x="25.05" y="1.67" class="f">pip3</text><text x="30.06" y="1.67" class="f">install</text><text x="38.076" y="1.67" class="f">crazy-th</text></svg><svg x="2424"><use xlink:href="#a"/><use xlink:href="#b" x="46.996"/><text y="1.67" class="f">kinopico@macbook-pro</text><text x="21.042" y="1.67" class="f">~</text><text x="23.046" y="1.67" class="f">%</text><text x="25.05" y="1.67" class="f">pip3</text><text x="30.06" y="1.67" class="f">install</text><text x="38.076" y="1.67" class="f">crazy-thu</text></svg><svg x="2525"><use xlink:href="#a"/><use xlink:href="#b" x="47.996"/><text y="1.67" class="f">kinopico@macbook-pro</text><text x="21.042" y="1.67" class="f">~</text><text x="23.046" y="1.67" class="f">%</text><text x="25.05" y="1.67" class="f">pip3</text><text x="30.06" y="1.67" class="f">install</text><text x="38.076" y="1.67" class="f">crazy-thur</text></svg><svg x="2626"><use xlink:href="#a"/><use xlink:href="#b" x="48.996"/><text y="1.67" class="f">kinopico@macbook-pro</text><text x="21.042" y="1.67" class="f">~</text><text x="23.046" y="1.67" class="f">%</text><text x="25.05" y="1.67" class="f">pip3</text><text x="30.06" y="1.67" class="f">install</text><text x="38.076" y="1.67" class="f">crazy-thurs</text></svg><svg x="2727"><use xlink:href="#a"/><use xlink:href="#b" x="49.996"/><text y="1.67" class="f">kinopico@macbook-pro</text><text x="21.042" y="1.67" class="f">~</text><text x="23.046" y="1.67" class="f">%</text><text x="25.05" y="1.67" class="f">pip3</text><text x="30.06" y="1.67" class="f">install</text><text x="38.076" y="1.67" class="f">crazy-thursd</text></svg><svg x="2828"><use xlink:href="#a"/><use xlink:href="#b" x="50.996"/><text y="1.67" class="f">kinopico@macbook-pro</text><text x="21.042" y="1.67" class="f">~</text><text x="23.046" y="1.67" class="f">%</text><text x="25.05" y="1.67" class="f">pip3</text><text x="30.06" y="1.67" class="f">install</text><text x="38.076" y="1.67" class="f">crazy-thursda</text></svg><svg x="2929"><use xlink:href="#a"/><use xlink:href="#b" x="51.996"/><use xlink:href="#4"/></svg><svg x="3030"><use xlink:href="#a"/><use xlink:href="#b" x="-.004" y="2.146"/><use xlink:href="#4"/></svg><svg x="3131"><use xlink:href="#a"/><use xlink:href="#b" x="-.004" y="4.317"/><use xlink:href="#4"/><use xlink:href="#5" y="2.171"/></svg><svg x="3232"><use xlink:href="#a"/><use xlink:href="#b" x="-.004" y="6.488"/><use xlink:href="#4"/><use xlink:href="#5" y="2.171"/><use xlink:href="#6" y="4.342"/></svg><svg x="3333"><use xlink:href="#a"/><use xlink:href="#b" x="-.004" y="8.659"/><use xlink:href="#4"/><use xlink:href="#5" y="2.171"/><use xlink:href="#6" y="4.342"/><use xlink:href="#7" y="6.513"/></svg><svg x="3434"><use xlink:href="#a"/><use xlink:href="#b" x="-.004" y="10.83"/><use xlink:href="#4"/><use xlink:href="#5" y="2.171"/><use xlink:href="#6" y="4.342"/><use xlink:href="#7" y="6.513"/><use xlink:href="#8" y="8.684"/></svg><svg x="3535"><use xlink:href="#a"/><use xlink:href="#b" x="-.004" y="13.001"/><use xlink:href="#4"/><use xlink:href="#5" y="2.171"/><use xlink:href="#6" y="4.342"/><use xlink:href="#7" y="6.513"/><use xlink:href="#8" y="8.684"/><use xlink:href="#9" y="10.855"/></svg><svg x="3636"><use xlink:href="#a"/><use xlink:href="#4"/><use xlink:href="#5" y="2.171"/><use xlink:href="#6" y="4.342"/><use xlink:href="#7" y="6.513"/><use xlink:href="#8" y="8.684"/><use xlink:href="#9" y="10.855"/></svg><svg x="3737"><use xlink:href="#a"/><use xlink:href="#4"/><use xlink:href="#5" y="2.171"/><use xlink:href="#6" y="4.342"/><use xlink:href="#7" y="6.513"/><use xlink:href="#8" y="8.684"/><use xlink:href="#9" y="10.855"/><text x="5.01" y="14.696" class="h">━━━━━━━━━━━━━━━━━━━━━━━━━━━━━━━━━━━━━━━━</text><text x="46.092" y="14.696" class="i">0.0/235.6</text><text x="56.112" y="14.696" class="i">kB</text><text x="59.118" y="14.696" class="g">?</text><text x="61.122" y="14.696" class="f">eta</text><text x="65.13" y="14.696" class="j">-:--:--</text></svg><svg x="3838"><use xlink:href="#a"/><use xlink:href="#4"/><use xlink:href="#5" y="2.171"/><use xlink:href="#6" y="4.342"/><use xlink:href="#7" y="6.513"/><use xlink:href="#8" y="8.684"/><use xlink:href="#9" y="10.855"/><use xlink:href="#10" y="13.026"/></svg><svg x="3939"><use xlink:href="#a"/><use xlink:href="#4"/><use xlink:href="#5" y="2.171"/><use xlink:href="#6" y="4.342"/><use xlink:href="#7" y="6.513"/><use xlink:href="#8" y="8.684"/><use xlink:href="#9" y="10.855"/><use xlink:href="#10" y="13.026"/></svg><svg x="4040"><use xlink:href="#a"/><use xlink:href="#4"/><use xlink:href="#5" y="2.171"/><use xlink:href="#6" y="4.342"/><use xlink:href="#7" y="6.513"/><use xlink:href="#8" y="8.684"/><use xlink:href="#9" y="10.855"/><text x="5.01" y="14.696" class="g">━━━━━━━━━━━━━━━━━━━</text><text x="24.048" y="14.696" class="h">╺━━━━━━━━━━━━━━━━━━━━</text><text x="46.092" y="14.696" class="i">112.6/235.6</text><text x="58.116" y="14.696" class="i">kB</text><text x="61.122" y="14.696" class="g">957.3</text><text x="67.134" y="14.696" class="g">kB/s</text><text x="72.144" y="14.696" class="f">eta</text><text x="76.152" y="14.696" class="j">0:00:01</text></svg><svg x="4141"><use xlink:href="#a"/><use xlink:href="#4"/><use xlink:href="#5" y="2.171"/><use xlink:href="#6" y="4.342"/><use xlink:href="#7" y="6.513"/><use xlink:href="#8" y="8.684"/><use xlink:href="#9" y="10.855"/><text x="5.01" y="14.696" class="g">━━━━━━━━━━━━━━━━━━━━╸</text><text x="26.052" y="14.696" class="h">━━━━━━━━━━━━━━━━━━━</text><text x="46.092" y="14.696" class="i">122.9/235.6</text><text x="58.116" y="14.696" class="i">kB</text><text x="61.122" y="14.696" class="g">790.6</text><text x="67.134" y="14.696" class="g">kB/s</text><text x="72.144" y="14.696" class="f">eta</text><text x="76.152" y="14.696" class="j">0:00:01</text></svg><svg x="4242"><use xlink:href="#a"/><use xlink:href="#4"/><use xlink:href="#5" y="2.171"/><use xlink:href="#6" y="4.342"/><use xlink:href="#7" y="6.513"/><use xlink:href="#8" y="8.684"/><use xlink:href="#9" y="10.855"/><text x="5.01" y="14.696" class="g">━━━━━━━━━━━━━━━━━━━━━━━━━━━━━━━━━━━━━━━╸</text><text x="46.092" y="14.696" class="i">235.5/235.6</text><text x="58.116" y="14.696" class="i">kB</text><text x="61.122" y="14.696" class="g">1.3</text><text x="65.13" y="14.696" class="g">MB/s</text><text x="70.14" y="14.696" class="f">eta</text><text x="74.148" y="14.696" class="j">0:00:01</text></svg><svg x="4343"><use xlink:href="#a"/><use xlink:href="#b" x="-.004" y="15.172"/><use xlink:href="#4"/><use xlink:href="#5" y="2.171"/><use xlink:href="#6" y="4.342"/><use xlink:href="#7" y="6.513"/><use xlink:href="#8" y="8.684"/><use xlink:href="#9" y="10.855"/><use xlink:href="#11" y="13.026"/></svg><svg x="4444"><use xlink:href="#a"/><use xlink:href="#b" x="-.004" y="19.514"/><use xlink:href="#4"/><use xlink:href="#5" y="2.171"/><use xlink:href="#6" y="4.342"/><use xlink:href="#7" y="6.513"/><use xlink:href="#8" y="8.684"/><use xlink:href="#9" y="10.855"/><use xlink:href="#11" y="13.026"/><use xlink:href="#12" y="15.197"/><use xlink:href="#13" y="17.368"/></svg><svg x="4545"><use xlink:href="#a"/><use xlink:href="#b" x="-.004" y="23.856"/><use xlink:href="#4"/><use xlink:href="#5" y="2.171"/><use xlink:href="#6" y="4.342"/><use xlink:href="#7" y="6.513"/><use xlink:href="#8" y="8.684"/><use xlink:href="#9" y="10.855"/><use xlink:href="#11" y="13.026"/><use xlink:href="#12" y="15.197"/><use xlink:href="#13" y="17.368"/><use xlink:href="#14" y="19.539"/><use xlink:href="#15" y="21.71"/></svg><svg x="4646"><use xlink:href="#a"/><use xlink:href="#b" x="-.004" y="28.198"/><use xlink:href="#4"/><use xlink:href="#5" y="2.171"/><use xlink:href="#6" y="4.342"/><use xlink:href="#7" y="6.513"/><use xlink:href="#8" y="8.684"/><use xlink:href="#9" y="10.855"/><use xlink:href="#11" y="13.026"/><use xlink:href="#12" y="15.197"/><use xlink:href="#13" y="17.368"/><use xlink:href="#14" y="19.539"/><use xlink:href="#15" y="21.71"/><use xlink:href="#16" y="23.881"/><use xlink:href="#17" y="26.052"/></svg><svg x="4747"><use xlink:href="#a"/><use xlink:href="#b" x="-.004" y="30.369"/><use xlink:href="#4"/><use xlink:href="#5" y="2.171"/><use xlink:href="#6" y="4.342"/><use xlink:href="#7" y="6.513"/><use xlink:href="#8" y="8.684"/><use xlink:href="#9" y="10.855"/><use xlink:href="#11" y="13.026"/><use xlink:href="#12" y="15.197"/><use xlink:href="#13" y="17.368"/><use xlink:href="#14" y="19.539"/><use xlink:href="#15" y="21.71"/><use xlink:href="#16" y="23.881"/><use xlink:href="#17" y="26.052"/><use xlink:href="#18" y="28.223"/></svg><svg x="4848"><use xlink:href="#a"/><use xlink:href="#b" x="-.004" y="32.54"/><use xlink:href="#4"/><use xlink:href="#5" y="2.171"/><use xlink:href="#6" y="4.342"/><use xlink:href="#7" y="6.513"/><use xlink:href="#8" y="8.684"/><use xlink:href="#9" y="10.855"/><use xlink:href="#11" y="13.026"/><use xlink:href="#12" y="15.197"/><use xlink:href="#13" y="17.368"/><use xlink:href="#14" y="19.539"/><use xlink:href="#15" y="21.71"/><use xlink:href="#16" y="23.881"/><use xlink:href="#17" y="26.052"/><use xlink:href="#18" y="28.223"/><use xlink:href="#19" y="30.394"/></svg><svg x="4949"><use xlink:href="#a"/><use xlink:href="#b" x="-.004" y="32.54"/><use xlink:href="#4"/><use xlink:href="#5" y="2.171"/><use xlink:href="#6" y="4.342"/><use xlink:href="#7" y="6.513"/><use xlink:href="#8" y="8.684"/><use xlink:href="#9" y="10.855"/><use xlink:href="#11" y="13.026"/><use xlink:href="#12" y="15.197"/><use xlink:href="#13" y="17.368"/><use xlink:href="#14" y="19.539"/><use xlink:href="#15" y="21.71"/><use xlink:href="#16" y="23.881"/><use xlink:href="#17" y="26.052"/><use xlink:href="#18" y="28.223"/><use xlink:href="#19" y="30.394"/></svg><svg x="5050"><use xlink:href="#a"/><use xlink:href="#b" x="24.996" y="32.54"/><use xlink:href="#4"/><use xlink:href="#5" y="2.171"/><use xlink:href="#6" y="4.342"/><use xlink:href="#7" y="6.513"/><use xlink:href="#8" y="8.684"/><use xlink:href="#9" y="10.855"/><use xlink:href="#11" y="13.026"/><use xlink:href="#12" y="15.197"/><use xlink:href="#13" y="17.368"/><use xlink:href="#14" y="19.539"/><use xlink:href="#15" y="21.71"/><use xlink:href="#16" y="23.881"/><use xlink:href="#17" y="26.052"/><use xlink:href="#18" y="28.223"/><use xlink:href="#19" y="30.394"/><use xlink:href="#1" y="32.565"/></svg><svg x="5151"><use xlink:href="#a"/><use xlink:href="#b" x="-.004" y="34.711"/><use xlink:href="#4"/><use xlink:href="#5" y="2.171"/><use xlink:href="#6" y="4.342"/><use xlink:href="#7" y="6.513"/><use xlink:href="#8" y="8.684"/><use xlink:href="#9" y="10.855"/><use xlink:href="#11" y="13.026"/><use xlink:href="#12" y="15.197"/><use xlink:href="#13" y="17.368"/><use xlink:href="#14" y="19.539"/><use xlink:href="#15" y="21.71"/><use xlink:href="#16" y="23.881"/><use xlink:href="#17" y="26.052"/><use xlink:href="#18" y="28.223"/><use xlink:href="#19" y="30.394"/><use xlink:href="#1" y="32.565"/></svg></svg></g></g></svg></svg>