<svg xmlns="http://www.w3.org/2000/svg" xmlns:xlink="http://www.w3.org/1999/xlink" width="1050" height="320.52"><rect width="1050" height="320.52" rx="5" ry="5" class="a"/><svg y="0%" x="0%"><circle cx="20" cy="20" r="6" fill="#ff5f58"/><circle cx="40" cy="20" r="6" fill="#ffbd2e"/><circle cx="60" cy="20" r="6" fill="#18c132"/></svg><svg height="260.52" viewBox="0 0 101 26.052" width="1010" x="15" xmlns="http://www.w3.org/2000/svg" xmlns:xlink="http://www.w3.org/1999/xlink" y="50"><style>@keyframes i{0%{transform:translateX(0)}.8%{transform:translateX(-202px)}8.6%{transform:translateX(-303px)}10.6%{transform:translateX(-404px)}15.6%{transform:translateX(-505px)}34.5%{transform:translateX(-606px)}37.9%{transform:translateX(-707px)}38.2%{transform:translateX(-909px)}52.4%{transform:translateX(-1010px)}59.2%{transform:translateX(-1111px)}64.4%{transform:translateX(-1212px)}69.1%{transform:translateX(-1313px)}82.1%{transform:translateX(-1414px)}85.5%{transform:translateX(-1515px)}85.8%{transform:translateX(-1717px)}to{transform:translateX(-1818px)}}.a{fill:#282d35}.f{fill:#b9c0cb;white-space:pre}</style><g font-family="Monaco,Consolas,Menlo,'Bitstream Vera Sans Mono','Powerline Symbols',monospace" font-size="1.67"><defs><symbol id="1"><text y="1.67" class="f">kinopico@macbook-pro</text><text x="21.042" y="1.67" class="f">crazy-thursday</text><text x="36.072" y="1.67" class="f">%</text></symbol><symbol id="2"><text y="1.67" class="f">kinopico@macbook-pro</text><text x="21.042" y="1.67" class="f">crazy-thursday</text><text x="36.072" y="1.67" class="f">%</text><text x="38.076" y="1.67" class="f">kfc</text></symbol><symbol id="3"><text y="1.67" class="f">╭───────────────────────────────────────────────────────────────────────────────────────────────────╮</text></symbol><symbol id="4"><text y="1.67" class="f">│</text><text x="2.004" y="1.67" class="f">I&apos;m</text><text x="6.012" y="1.67" class="f">Qin</text><text x="10.02" y="1.67" class="f">Shi</text><text x="14.028" y="1.67" class="f">Huang.</text><text x="21.042" y="1.67" class="f">I&apos;m</text><text x="25.05" y="1.67" class="f">alive,</text><text x="32.064" y="1.67" class="f">and</text><text x="36.072" y="1.67" class="f">I</text><text x="38.076" y="1.67" class="f">have</text><text x="43.086" y="1.67" class="f">100,000</text><text x="51.102" y="1.67" class="f">ton</text><text x="55.11" y="1.67" class="f">golden</text><text x="62.124" y="1.67" class="f">in</text><text x="65.13" y="1.67" class="f">Xi&apos;An.</text><text x="72.144" y="1.67" class="f">Today</text><text x="78.156" y="1.67" class="f">is</text><text x="81.162" y="1.67" class="f">KFC</text><text x="85.17" y="1.67" class="f">Crazy</text><text x="100.2" y="1.67" class="f">│</text></symbol><symbol id="5"><text y="1.67" class="f">│</text><text x="2.004" y="1.67" class="f">Thursday,</text><text x="12.024" y="1.67" class="f">I</text><text x="14.028" y="1.67" class="f">will</text><text x="19.038" y="1.67" class="f">let</text><text x="23.046" y="1.67" class="f">you</text><text x="27.054" y="1.67" class="f">lead</text><text x="32.064" y="1.67" class="f">the</text><text x="36.072" y="1.67" class="f">three</text><text x="42.084" y="1.67" class="f">armies</text><text x="49.098" y="1.67" class="f">if</text><text x="52.104" y="1.67" class="f">you</text><text x="56.112" y="1.67" class="f">give</text><text x="61.122" y="1.67" class="f">me</text><text x="64.128" y="1.67" class="f">50</text><text x="67.134" y="1.67" class="f">yuan</text><text x="72.144" y="1.67" class="f">by</text><text x="75.15" y="1.67" class="f">WeChat.</text><text x="100.2" y="1.67" class="f">│</text></symbol><symbol id="6"><text y="1.67" class="f">╰─────────────────────────────────────────────────</text><text x="51.102" y="1.67" class="f">create</text><text x="58.116" y="1.67" class="f">by</text><text x="61.122" y="1.67" class="f">zqmillet</text><text x="70.14" y="1.67" class="f">at</text><text x="73.146" y="1.67" class="f">2022-09-25T05:19:51+00:00</text><text x="99.198" y="1.67" class="f">─╯</text></symbol><symbol id="7"><text y="1.67" class="f">kinopico@macbook-pro</text><text x="21.042" y="1.67" class="f">crazy-thursday</text><text x="36.072" y="1.67" class="f">%</text><text x="38.076" y="1.67" class="f">crazy-thursday</text></symbol><symbol id="a"><path fill="transparent" d="M0 0h101v12H0z"/></symbol><symbol id="b"><path fill="#6f7683" d="M0 0h1.102v2.171H0z"/></symbol></defs><path class="a" d="M0 0h101v26.052H0z"/><g style="animation-duration:5.190276s;animation-iteration-count:infinite;animation-name:i;animation-timing-function:steps(1,end)"><svg width="1919"><svg><use xlink:href="#a"/><use xlink:href="#b" x="-.004"/></svg><svg x="101"><use xlink:href="#a"/><use xlink:href="#b" x="-.004"/></svg><svg x="202"><use xlink:href="#a"/><use xlink:href="#b" x="37.996"/><use xlink:href="#1"/></svg><svg x="303"><use xlink:href="#a"/><use xlink:href="#b" x="38.996"/><text y="1.67" class="f">kinopico@macbook-pro</text><text x="21.042" y="1.67" class="f">crazy-thursday</text><text x="36.072" y="1.67" class="f">%</text><text x="38.076" y="1.67" class="f">k</text></svg><svg x="404"><use xlink:href="#a"/><use xlink:href="#b" x="39.996"/><text y="1.67" class="f">kinopico@macbook-pro</text><text x="21.042" y="1.67" class="f">crazy-thursday</text><text x="36.072" y="1.67" class="f">%</text><text x="38.076" y="1.67" class="f">kf</text></svg><svg x="505"><use xlink:href="#a"/><use xlink:href="#b" x="40.996"/><use xlink:href="#2"/></svg><svg x="606"><use xlink:href="#a"/><use xlink:href="#b" x="-.004" y="2.146"/><use xlink:href="#2"/></svg><svg x="707"><use xlink:href="#a"/><use xlink:href="#b" x="-.004" y="10.83"/><use xlink:href="#2"/><use xlink:href="#3" y="2.171"/><use xlink:href="#4" y="4.342"/><use xlink:href="#5" y="6.513"/><use xlink:href="#6" y="8.684"/></svg><svg x="808"><use xlink:href="#a"/><use xlink:href="#b" x="-.004" y="10.83"/><use xlink:href="#2"/><use xlink:href="#3" y="2.171"/><use xlink:href="#4" y="4.342"/><use xlink:href="#5" y="6.513"/><use xlink:href="#6" y="8.684"/></svg><svg x="909"><use xlink:href="#a"/><use xlink:href="#b" x="37.996" y="10.83"/><use xlink:href="#2"/><use xlink:href="#3" y="2.171"/><use xlink:href="#4" y="4.342"/><use xlink:href="#5" y="6.513"/><use xlink:href="#6" y="8.684"/><use xlink:href="#1" y="10.855"/></svg><svg x="1010"><use xlink:href="#a"/><use xlink:href="#b" x="38.996" y="10.83"/><use xlink:href="#2"/><use xlink:href="#3" y="2.171"/><use xlink:href="#4" y="4.342"/><use xlink:href="#5" y="6.513"/><use xlink:href="#6" y="8.684"/><text y="12.525" class="f">kinopico@macbook-pro</text><text x="21.042" y="12.525" class="f">crazy-thursday</text><text x="36.072" y="12.525" class="f">%</text><text x="38.076" y="12.525" class="f">c</text></svg><svg x="1111"><use xlink:href="#a"/><use xlink:href="#b" x="39.996" y="10.83"/><use xlink:href="#2"/><use xlink:href="#3" y="2.171"/><use xlink:href="#4" y="4.342"/><use xlink:href="#5" y="6.513"/><use xlink:href="#6" y="8.684"/><text y="12.525" class="f">kinopico@macbook-pro</text><text x="21.042" y="12.525" class="f">crazy-thursday</text><text x="36.072" y="12.525" class="f">%</text><text x="38.076" y="12.525" class="f">cr</text></svg><svg x="1212"><use xlink:href="#a"/><use xlink:href="#b" x="40.996" y="10.83"/><use xlink:href="#2"/><use xlink:href="#3" y="2.171"/><use xlink:href="#4" y="4.342"/><use xlink:href="#5" y="6.513"/><use xlink:href="#6" y="8.684"/><text y="12.525" class="f">kinopico@macbook-pro</text><text x="21.042" y="12.525" class="f">crazy-thursday</text><text x="36.072" y="12.525" class="f">%</text><text x="38.076" y="12.525" class="f">cra</text></svg><svg x="1313"><use xlink:href="#a"/><use xlink:href="#b" x="52.996" y="10.83"/><use xlink:href="#2"/><use xlink:href="#3" y="2.171"/><use xlink:href="#4" y="4.342"/><use xlink:href="#5" y="6.513"/><use xlink:href="#6" y="8.684"/><use xlink:href="#7" y="10.855"/></svg><svg x="1414"><use xlink:href="#a"/><use xlink:href="#b" x="-.004" y="13.001"/><use xlink:href="#2"/><use xlink:href="#3" y="2.171"/><use xlink:href="#4" y="4.342"/><use xlink:href="#5" y="6.513"/><use xlink:href="#6" y="8.684"/><use xlink:href="#7" y="10.855"/></svg><svg x="1515"><use xlink:href="#a"/><use xlink:href="#b" x="-.004" y="21.685"/><use xlink:href="#2"/><use xlink:href="#3" y="2.171"/><use xlink:href="#4" y="4.342"/><use xlink:href="#5" y="6.513"/><use xlink:href="#6" y="8.684"/><use xlink:href="#7" y="10.855"/><use xlink:href="#3" y="13.026"/><use xlink:href="#4" y="15.197"/><use xlink:href="#5" y="17.368"/><use xlink:href="#6" y="19.539"/></svg><svg x="1616"><use xlink:href="#a"/><use xlink:href="#b" x="-.004" y="21.685"/><use xlink:href="#2"/><use xlink:href="#3" y="2.171"/><use xlink:href="#4" y="4.342"/><use xlink:href="#5" y="6.513"/><use xlink:href="#6" y="8.684"/><use xlink:href="#7" y="10.855"/><use xlink:href="#3" y="13.026"/><use xlink:href="#4" y="15.197"/><use xlink:href="#5" y="17.368"/><use xlink:href="#6" y="19.539"/></svg><svg x="1717"><use xlink:href="#a"/><use xlink:href="#b" x="37.996" y="21.685"/><use xlink:href="#2"/><use xlink:href="#3" y="2.171"/><use xlink:href="#4" y="4.342"/><use xlink:href="#5" y="6.513"/><use xlink:href="#6" y="8.684"/><use xlink:href="#7" y="10.855"/><use xlink:href="#3" y="13.026"/><use xlink:href="#4" y="15.197"/><use xlink:href="#5" y="17.368"/><use xlink:href="#6" y="19.539"/><use xlink:href="#1" y="21.71"/></svg><svg x="1818"><use xlink:href="#a"/><use xlink:href="#b" x="-.004" y="23.856"/><use xlink:href="#2"/><use xlink:href="#3" y="2.171"/><use xlink:href="#4" y="4.342"/><use xlink:href="#5" y="6.513"/><use xlink:href="#6" y="8.684"/><use xlink:href="#7" y="10.855"/><use xlink:href="#3" y="13.026"/><use xlink:href="#4" y="15.197"/><use xlink:href="#5" y="17.368"/><use xlink:href="#6" y="19.539"/><use xlink:href="#1" y="21.71"/></svg></svg></g></g></svg></svg>